<svg width="0" height="0" class="hidden"><symbol fill="none" xmlns="http://www.w3.org/2000/svg" viewBox="0 0 28 28" id="mail"><path d="m25.084 21-7.75-7m-6.667 0-7.75 7M2.334 8.167l9.525 6.668c.772.54 1.157.81 1.577.914.37.093.758.093 1.129 0 .419-.104.805-.374 1.576-.914l9.526-6.668M7.933 23.333h12.134c1.96 0 2.94 0 3.689-.381a3.5 3.5 0 0 0 1.53-1.53c.38-.748.38-1.729.38-3.689v-7.466c0-1.96 0-2.94-.38-3.69a3.5 3.5 0 0 0-1.53-1.529c-.749-.381-1.729-.381-3.69-.381H7.935c-1.96 0-2.94 0-3.69.381a3.5 3.5 0 0 0-1.529 1.53c-.381.748-.381 1.728-.381 3.689v7.466c0 1.96 0 2.94.381 3.69a3.5 3.5 0 0 0 1.53 1.529c.748.381 1.728.381 3.689.381Z" stroke-width="2" stroke-linecap="round" stroke-linejoin="round"/></symbol><symbol fill="none" xmlns="http://www.w3.org/2000/svg" viewBox="0 0 28 28" id="lock"><path d="M19.833 12.833v-3.5a5.833 5.833 0 1 0-11.666 0v3.5M9.1 24.5h9.8c1.96 0 2.94 0 3.689-.381a3.5 3.5 0 0 0 1.53-1.53c.381-.749.381-1.729.381-3.689v-.467c0-1.96 0-2.94-.381-3.689a3.5 3.5 0 0 0-1.53-1.53c-.749-.38-1.729-.38-3.689-.38H9.1c-1.96 0-2.94 0-3.689.38a3.5 3.5 0 0 0-1.53 1.53c-.381.75-.381 1.73-.381 3.69v.466c0 1.96 0 2.94.381 3.689a3.5 3.5 0 0 0 1.53 1.53c.749.381 1.729.381 3.689.381Z" stroke-width="2" stroke-linecap="round" stroke-linejoin="round"/></symbol><symbol fill="none" xmlns="http://www.w3.org/2000/svg" viewBox="0 0 28 28" id="x"><path d="M21 7 7 21M7 7l14 14" stroke-width="3" stroke-linecap="round" stroke-linejoin="round"/></symbol></svg>